<?xml version="1.0" encoding="UTF-8" standalone="no"?>
<svg
   xmlns:dc="http://purl.org/dc/elements/1.1/"
   xmlns:cc="http://creativecommons.org/ns#"
   xmlns:rdf="http://www.w3.org/1999/02/22-rdf-syntax-ns#"
   xmlns:svg="http://www.w3.org/2000/svg"
   xmlns="http://www.w3.org/2000/svg"
   width="100%"
   height="100%"
   viewBox="0 0 64 64"
   version="1.1"
   xml:space="preserve"
   style="fill-rule:evenodd;clip-rule:evenodd;stroke-linecap:round;stroke-linejoin:round;stroke-miterlimit:2;"
   id="svg17">
  <metadata
   id="metadata23">
    <rdf:RDF>
      <cc:Work
   rdf:about="">
        <dc:format>image/svg+xml</dc:format>

        <dc:type
   rdf:resource="http://purl.org/dc/dcmitype/StillImage" />

      </cc:Work>

    </rdf:RDF>

  </metadata>

  <defs
   id="defs21" />

  
  <path
   d="M8,52l6.92,0c0.817,0 1.6,-0.325 2.178,-0.902c0.577,-0.578 0.902,-1.361 0.902,-2.178c0,-3.536 0,-9.304 0,-12.84c0,-0.817 -0.325,-1.6 -0.902,-2.178c-0.578,-0.577 -1.361,-0.902 -2.178,-0.902c-2.939,0 -6.92,0 -6.92,0"
   style="fill:none;stroke:#222a33;stroke-width:1.5px;"
   id="path3" />

  <path
   d="M18,37c0,0 1.524,-0.406 3.198,-0.853c2.804,-0.747 5.767,-0.64 8.51,0.309c2.479,0.859 5.468,1.893 7.245,2.508c1,0.347 2.089,0.333 3.08,-0.039c1.367,-0.513 3.365,-1.262 4.777,-1.791c0.99,-0.371 2.105,-0.012 2.691,0.867c0,0.001 0,0.001 0.001,0.001c0.258,0.388 0.344,0.865 0.237,1.318c-0.107,0.453 -0.397,0.842 -0.802,1.073c-2.063,1.179 -5.437,3.107 -5.437,3.107"
   style="fill:none;stroke:#222a33;stroke-width:1.5px;"
   id="path5" />

  <path
   d="M33,27.144c0,-1.521 -0.628,-2.973 -1.735,-4.015c-1.397,-1.266 -2.265,-3.097 -2.265,-5.129c0,-3.863 3.137,-7 7,-7c3.863,0 7,3.137 7,7c0,2.002 -0.842,3.808 -2.191,5.085c-1.146,1.103 -1.793,2.625 -1.793,4.215c-0.016,0.001 -0.016,0.002 -0.016,0.003c0,0.422 -0.186,0.824 -0.509,1.097c-0.322,0.273 -0.748,0.39 -1.165,0.321c-1.134,-0.189 -2.584,-0.431 -3.484,-0.581c-0.486,-0.081 -0.842,-0.501 -0.842,-0.994c0,-0.001 0,-0.001 0,-0.002Z"
   style="fill:none;stroke:#222a33;stroke-width:1.5px;"
   id="path7" />

  <path
   d="M23,49.849c0,0 9.257,0.646 13.904,0.97c1.674,0.117 3.333,-0.377 4.671,-1.39c3.773,-2.854 11.667,-8.828 14.947,-11.31c0.817,-0.619 0.981,-1.782 0.366,-2.602c-0.001,-0.001 -0.001,-0.001 -0.002,-0.002c-0.23,-0.308 -0.632,-0.433 -0.997,-0.311c-2.024,0.674 -8.389,2.796 -8.389,2.796"
   style="fill:none;stroke:#222a33;stroke-width:1.5px;"
   id="path9" />

  <path
   d="M22,40c0,0 3.718,-1.692 7,0"
   style="fill:none;stroke:#222a33;stroke-width:1.5px;"
   id="path11" />

  <path
   d="M33,31l6,1"
   style="fill:none;stroke:#222a33;stroke-width:1.5px;"
   id="path13" />

  <path
   d="M35,33.833l2,0.334"
   style="fill:none;stroke:#222a33;stroke-width:1.5px;"
   id="path15" />

</svg>
