<?xml version="1.0" encoding="iso-8859-1"?>
<!-- Uploaded to: SVG Repo, www.svgrepo.com, Generator: SVG Repo Mixer Tools -->
<!DOCTYPE svg PUBLIC "-//W3C//DTD SVG 1.1//EN" "http://www.w3.org/Graphics/SVG/1.1/DTD/svg11.dtd">
<svg fill="#000000" version="1.1" id="Capa_1" xmlns="http://www.w3.org/2000/svg" xmlns:xlink="http://www.w3.org/1999/xlink" 
	 width="800px" height="800px" viewBox="0 0 503.222 503.223"
	 xml:space="preserve">
<g>
	<path d="M182.226,330.084c0-14.683,11.896-26.589,26.582-26.589c14.687,0,26.586,11.901,26.586,26.589
		c0,14.683-11.899,26.579-26.586,26.579C194.122,356.663,182.226,344.767,182.226,330.084z M468.735,460.575
		c-0.56,1.405-13.73,33.085-46.596,40.931c-4.816,1.144-9.782,1.717-14.888,1.717c-25.062,0-53.588-13.823-85.034-41.252
		c-1.713-1.381-42.13-34.513-59.043-85.968c-13.311,21.156-36.614,35.251-63.155,35.251c-2.212,0-4.392-0.141-6.562-0.336
		c-17.382,9.492-33.426,13.104-47.719,13.104c-43.535,0.01-70.942-33.173-71.306-33.621c-40.148-53.069-55.253-97.337-44.955-131.64
		c9.859-32.835,39.374-43.612,40.627-44.058c29.61-12.983,71.64-5.605,88.312-1.839c-2.548-59.367,13.677-120.371,44.886-160.706
		C229.697,18.031,265.531,0,306.909,0c13.596,0,27.961,1.93,42.709,5.75c15.807,3.946,63.374,22.551,76.647,47.48
		c3.784,7.11,4.462,14.165,2.002,20.955l-0.163,0.383l-72.713,144.6c13.049,5.596,54.739,27.676,46.549,78.573
		c-0.719,14.851-8.681,26.257-13.861,32.156c30.7,9.772,59.729,24.936,75.85,48.519C479.4,401.042,481.019,428.681,468.735,460.575z
		 M380.508,327.605c3.333-3.355,11.416-12.643,13.75-25.188l-50.488,16.773C355.662,321.291,368.141,324.045,380.508,327.605z
		 M352.226,225.462l-5.899,11.738l-2.501-0.333c-14.323-1.921-28.6-2.901-42.452-2.901c-57.384,0-97.278,16.712-116.462,27.037
		c4.879-1.018,9.932-1.55,15.107-1.55c33.395,0,61.745,22.262,71.383,52.915v-0.148c2.398,0.004,26.383,0.224,57.153,4.555
		l66.692-22.15C401.464,248.709,363.241,229.894,352.226,225.462z M145.069,375.536l4.541-4.928l16.463-11.682
		c-2.553-3.654-4.606-7.668-6.132-11.938l-18.638,14.533l-6.485-7.402C137.001,361.904,140.5,369.119,145.069,375.536z
		 M132.451,340.65l9.768,11.163l15.677-12.228c-0.588-3.09-0.922-6.254-0.922-9.502c0-27.854,22.652-50.507,50.505-50.507
		c1.739,0,3.47,0.093,5.171,0.271v-12.06c-4.1-0.794-8.317-1.251-12.641-1.251c-37.397,0-67.819,30.877-67.819,68.816
		C132.195,337.141,132.323,338.9,132.451,340.65z M225.697,275.74l0.954-3.659c-3.349-1.46-6.863-2.585-10.457-3.481v11.784
		c3.274,0.574,6.438,1.461,9.467,2.633L225.697,275.74z M207.484,373.497c23.938,0,43.413-19.471,43.413-43.413
		s-19.476-43.423-43.413-43.423c-23.944,0-43.418,19.48-43.418,43.423S183.54,373.497,207.484,373.497z M245.416,363.313
		l7.967,14.356c2.805-3.632,5.236-7.543,7.276-11.705L249,358.768C247.901,360.354,246.687,361.857,245.416,363.313z
		 M267.836,335.349c0-27.051-15.502-50.442-37.934-61.671l-0.712,2.73v8.139c17.004,8.135,28.793,25.459,28.793,45.527
		c0,8.121-1.974,15.775-5.391,22.58l10.894,6.721C266.25,351.884,267.836,343.814,267.836,335.349z M171.946,260.307
		c13.54-8.788,57.914-33.433,129.423-33.433c13.352,0,27.097,0.891,40.888,2.637l79.401-157.929
		c1.693-4.833,1.144-9.745-1.666-15.021c-11.332-21.287-55.585-39.811-72.125-43.943c-14.207-3.671-27.979-5.526-40.968-5.526
		c-39.11,0-72.993,17.082-98.002,49.406C170.168,106.563,155.257,189.672,171.946,260.307z M181.638,408.851
		c-32.436-8.331-56.537-38.079-56.537-73.502c0-29.617,16.872-55.259,41.35-67.767l-0.145-0.555
		c-3.918-15.112-6.375-30.85-7.479-46.76c-14.293-3.312-57.321-11.588-86.124,1.029c-0.506,0.188-27.708,10.226-36.473,39.611
		c-9.544,32.002,5.19,74.104,43.782,125.125C81.683,388.101,121.315,435.732,181.638,408.851z M248.463,383.41l-8.282-14.916
		c-8.816,7.523-20.225,12.092-32.697,12.092c-14.582,0-27.694-6.244-36.919-16.157l-16.545,11.733l-4.501,4.966
		c12.429,14.099,30.432,23.032,50.496,23.032C218.986,404.169,236.145,396.197,248.463,383.41z M458.076,382.421
		c-39.698-58.054-167.94-62.735-184.863-63.09c1.097,5.171,1.708,10.52,1.708,16.022c0,11.383-2.557,22.154-7.005,31.853
		c14.776,53.167,58.408,88.978,58.847,89.337c36.138,31.521,67.627,44.281,93.72,38.069c29.352-7.015,41.532-36.343,41.654-36.637
		C473.514,428.438,472.152,403.002,458.076,382.421z M315.665,46.93c0,0-85.324-48.374-96.081,80.479
		C219.588,127.409,245.119,40.116,315.665,46.93z M70.118,338.933c0,0-12.286-90.112,54.913-112.661
		C125.035,226.271,27.402,216.893,70.118,338.933z M339.522,360.709c0,0,90.579,8.275,97.454,78.818
		C436.971,439.527,468.036,346.498,339.522,360.709z"/>
</g>
</svg>