<svg xmlns="http://www.w3.org/2000/svg" viewBox="0 0 128 128"><title>icon27.1g</title><g id="electricity_train" data-name="electricity train"><path d="M80.44,47.154H73.321a1,1,0,0,0-1,1V61.76a1,1,0,0,0,1,1h33.892A30.888,30.888,0,0,0,80.44,47.154Z"/><rect x="44.536" y="47.154" width="16.072" height="15.606" rx="1"/><rect x="16.75" y="47.154" width="16.072" height="15.606" rx="1"/><path d="M103.64,80.11a1.314,1.314,0,0,0,1.31,1.31h16.3V78.8h-16.3A1.314,1.314,0,0,0,103.64,80.11Z"/><path d="M80.44,37.15H9.75a3.009,3.009,0,0,0-3,3V78.11H73a2,2,0,0,1,0,4H6.75v5.74a3.009,3.009,0,0,0,3,3h108.5a3.009,3.009,0,0,0,3-3V85.42h-16.3a5.31,5.31,0,0,1,0-10.62h16.18A40.868,40.868,0,0,0,80.44,37.15ZM36.822,61.76a5.006,5.006,0,0,1-5,5H17.75a5.006,5.006,0,0,1-5-5V48.154a5.006,5.006,0,0,1,5-5H31.822a5.006,5.006,0,0,1,5,5Zm27.786,0a5.006,5.006,0,0,1-5,5H45.536a5.006,5.006,0,0,1-5-5V48.154a5.006,5.006,0,0,1,5-5H59.608a5.006,5.006,0,0,1,5,5Zm46.068,3.005a3.965,3.965,0,0,1-3.463,2H73.321a5.006,5.006,0,0,1-5-5V48.154a5.006,5.006,0,0,1,5-5H80.44a34.916,34.916,0,0,1,30.253,17.621A3.96,3.96,0,0,1,110.676,64.765Z"/></g></svg>